<svg width="271" height="251" viewBox="0 0 271 251" fill="none" xmlns="http://www.w3.org/2000/svg">
<path d="M33.9551 0.455498C33.9551 26.5315 33.9431 50.2328 33.9591 73.9342C33.9751 97.7075 34.2711 121.485 33.8951 145.252C33.7857 152.108 35.6937 156.33 41.9244 159.58C51.7164 164.685 60.9591 170.828 70.5777 176.278C99.1017 192.444 124.834 211.153 135.63 245.773C136.028 244.865 136.524 243.985 136.814 243.042C145.067 216.178 163.175 197.817 187.155 184.326C200.584 176.772 213.528 168.337 227.11 161.078C233.886 157.456 236.324 153.225 236.274 145.442C235.995 101.918 236.355 58.3888 236.494 14.8622C236.506 11.2968 236.495 7.73018 236.495 2.04618C246.846 8.15551 256.023 12.3582 263.572 18.5422C267.324 21.6155 269.875 28.3062 269.928 33.3915C270.399 78.5902 270.316 123.794 269.918 168.992C269.888 172.366 266.983 177.124 264.019 178.849C223.195 202.621 182.195 226.097 140.979 249.185C137.81 250.961 131.83 250.78 128.604 248.956C87.7844 225.85 47.1577 202.396 6.74174 178.592C3.55374 176.713 0.457745 171.584 0.421745 167.934C-0.024922 123.072 0.220411 78.2035 0.000411368 33.3368C-0.044922 23.9035 3.65508 17.3755 11.8524 12.9715C18.5871 9.35284 25.1684 5.4475 33.9551 0.455498Z" fill="white"/>
</svg>
