<svg width="907" height="370" fill="none" xmlns="http://www.w3.org/2000/svg"><path d="M769.27.54c0 1.329 1.226 4.61 2.247 5.938 1.594 2.118 4.619 3.53 8.174 3.779 6.58.498 11.403-2.865 12.302-8.554L792.279 0h-4.087l-.286 1.744c-.409 2.409-2.779 4.734-5.354 5.108-4.7.747-8.337-1.329-8.991-5.108L773.275 0h-2.003c-1.389 0-2.002.166-2.002.54ZM329.513 29.899v29.069h4.904V4.983h29.426V.831h-34.33v29.068ZM385.626 15.572c-5.844 1.62-10.094 5.607-10.953 10.299l-.286 1.536h2.493c2.248 0 2.493-.083 2.493-.83 0-1.329 1.022-3.073 2.657-4.527 2.452-2.159 4.046-2.699 8.582-2.699 3.638-.041 4.333.083 6.131 1.039 1.226.622 2.534 1.744 3.269 2.823 1.145 1.661 1.227 2.077 1.349 6.105l.164 4.318h-5.926c-9.319 0-14.509 1.37-18.228 4.817-2.534 2.284-3.433 4.32-3.638 8.264-.245 4.319.777 6.894 3.679 9.551 5.68 5.191 16.225 4.485 22.56-1.495l1.757-1.62.245 2.45c.123 1.371.327 2.658.491 2.908.204.373 5.108.706 5.108.332 0-.042-.204-.748-.49-1.537-.286-.955-.531-6.768-.695-16.818-.245-14.908-.286-15.448-1.185-17.44-1.798-3.946-5.272-6.645-9.809-7.642-2.902-.623-7.152-.54-9.768.166Zm15.817 26.91c0 4.983-.041 5.19-1.185 6.768-1.594 2.243-3.515 3.82-6.172 5.108-1.88.872-2.861 1.08-5.926 1.08-4.373 0-6.457-.872-8.378-3.572-3.065-4.36-1.471-9.966 3.597-12.499 2.942-1.453 5.885-1.91 12.26-1.952l5.804-.041v5.107ZM436.182 15.863c-.041.083-.286 5.897-.613 12.998-.327 7.06-.859 14.451-1.186 16.403-1.103 6.395-3.514 9.55-7.274 9.55h-1.553v4.154h1.961c4.455 0 7.52-2.077 9.523-6.437 1.553-3.322 2.33-8.222 2.82-17.773.245-4.402.531-9.51.654-11.42l.245-3.405h17.492v39.034h4.496V15.78h-13.283c-7.315 0-13.282.042-13.282.083ZM487.269 37.374v21.593h2.37l2.33-.041 11.239-17.4 11.239-17.44.123 17.44.082 17.441h4.904V15.78h-4.782l-11.402 17.649-11.403 17.648-.123-17.648-.081-17.649h-4.496v21.594ZM543.669 37.374v21.593H575.548v12.874h4.455l.122-8.513.123-8.513h-4.292V15.78h-4.904v39.035h-22.887V15.78h-4.496v21.594ZM600.887 37.415V59.01l10.748-.124c11.934-.167 13.12-.416 16.757-3.073 3.27-2.409 4.945-5.939 4.945-10.548 0-3.987-1.103-6.81-3.596-9.385-3.515-3.53-5.313-4.028-15.449-4.236l-8.501-.166V15.78h-4.904v21.635Zm21.17-1.08c4.087 1.246 6.621 4.61 6.621 8.929 0 2.824-1.022 5.19-2.983 6.935-2.412 2.118-4.741 2.616-12.833 2.616h-7.071V35.713h7.071c5.19 0 7.642.166 9.195.623ZM655.243 37.374v21.593h4.496V39.035h3.392l3.351.041 8.542 9.925 8.501 9.967h6.09l-.736-.956c-.409-.54-4.578-5.398-9.318-10.838-4.7-5.44-8.624-10.133-8.706-10.382-.081-.29 3.679-5.066 8.297-10.547 4.618-5.523 8.378-10.133 8.378-10.257 0-.125-1.267-.208-2.779-.208h-2.82l-7.806 9.551-7.847 9.551h-6.539V15.78h-4.496v21.594ZM708.374 37.374v21.593h2.37l2.33-.041 11.239-17.4 11.239-17.44.123 17.44.082 17.441h4.904V15.78h-4.782l-11.402 17.649-11.403 17.648-.123-17.648-.081-17.649h-4.496v21.594ZM764.773 37.374v21.593h2.371l2.329-.041 11.24-17.4 11.239-17.44.122 17.44.082 17.441h4.904V15.78H792.279l-11.403 17.649-11.403 17.648-.122-17.648-.082-17.649h-4.496v21.594ZM125.573 28.82c-1.921.54-16.593 8.761-33.022 18.478-22.438 13.289-23.705 14.203-25.748 18.106l-1.104 2.076V209.501l1.063 2.325c.899 1.952 1.92 3.031 6.539 6.976 21.293 18.231 35.311 34.633 46.101 54.026l2.902 5.191-.082-27.573-.123-27.532-2.125-.831c-4.904-1.869-10.503-7.142-12.956-12.209-2.656-5.523-2.452-.706-2.574-61.127-.123-50.039-.082-55.064.531-56.35 1.757-3.821 7.07-4.153 9.523-.665.858 1.204.858 1.204.858 53.693 0 34.094.163 53.362.408 55.106.532 3.197 1.554 5.357 3.72 7.724 3.678 4.069 10.585 5.44 15.53 3.073 3.106-1.495 5.436-3.738 6.784-6.52l1.145-2.367.204-54.192.204-54.192.981-1.412c1.063-1.495 3.025-2.533 4.864-2.533 1.594 0 3.801 1.578 4.7 3.322.654 1.37.695 4.61.613 55.646l-.123 54.192-.899 2.699c-2.575 7.682-8.501 13.953-15.53 16.444l-2.166.789v27.698c0 15.282.081 27.74.204 27.74.123 0 .817-1.287 1.635-2.865 5.149-10.465 13.487-22.425 23.173-33.263 4.986-5.648 15.244-15.572 23.009-22.3 6.54-5.689 7.439-6.768 8.869-10.423l.899-2.367v-68.311c0-76.367.245-70.594-2.902-75.162-1.43-2.035-2.411-2.741-11.361-8.181-18.678-11.378-44.998-26.37-47.532-27.075-1.961-.582-3.923-.54-6.212.124Z" fill="#fff"/><path d="M22.173 87.994C16.656 91.15 10.77 94.68 9.095 95.801c-3.72 2.45-6.376 5.814-7.766 9.884l-1.021 2.906-.123 42.15c-.04 23.171.04 54.275.245 69.141l.327 26.992 1.104 2.16c1.716 3.322 3.228 4.858 7.56 7.433 53.621 31.975 111.902 65.944 115.13 67.107 2.412.83 6.335.955 8.46.166 4.619-1.661 118.4-67.979 120.811-70.388.776-.789 2.002-2.657 2.697-4.152l1.267-2.741v-67.065c-.041-61.957-.082-67.273-.735-69.681-1.676-6.312-4.169-9.593-10.586-13.912-3.719-2.491-20.353-12.084-20.557-11.835-.082.083-.286 32.64-.491 72.381l-.327 72.256-1.103 2.076c-1.635 3.115-4.046 5.191-9.931 8.513-2.902 1.661-11.362 6.644-18.8 11.129-7.398 4.443-16.307 9.759-19.699 11.835-21.743 13.039-36.088 29.899-43.649 51.161-1.063 2.948-2.044 5.564-2.207 5.73-.164.166-.94-1.412-1.676-3.53-2.002-5.813-6.089-14.077-9.727-19.642-9.972-15.281-24.072-27.615-47.286-41.318-3.597-2.118-10.749-6.437-15.94-9.551-5.149-3.115-11.197-6.686-13.404-7.932-4.782-2.658-6.58-4.319-7.97-7.392l-1.063-2.284-.163-72.505c-.082-39.865-.204-72.505-.245-72.546-.041-.042-4.578 2.491-10.054 5.647ZM879.208 98.542c0 1.329 1.227 4.61 2.248 5.938 1.594 2.118 4.619 3.53 8.174 3.779 6.58.499 11.403-2.865 12.302-8.554l.286-1.703h-4.087l-.286 1.744c-.409 2.409-2.779 4.734-5.354 5.108-4.7.748-8.337-1.329-8.991-5.108l-.286-1.744h-2.003c-1.389 0-2.003.166-2.003.54ZM678.498 99.207c-2.125 1.744-.695 5.439 2.084 5.439 1.717 0 3.27-1.453 3.27-3.114 0-2.616-3.27-4.028-5.354-2.325ZM344.593 99.954c-.245.623-4.986 13.413-10.585 28.362-5.599 14.95-10.258 27.532-10.422 27.948-.286.664-.082.747 2.289.623l2.616-.125 2.86-7.89 2.861-7.89h26.116l2.943 7.89 2.901 7.89 2.493.125c1.39.083 2.534.083 2.534 0s-4.863-13.123-10.789-28.986l-10.749-28.86-2.289-.125c-2.207-.125-2.37-.083-2.779 1.038Zm8.378 20.68c3.066 8.471 5.559 15.489 5.559 15.656 0 .207-5.068.332-11.239.332-6.253 0-11.24-.166-11.24-.374s2.493-7.226 5.518-15.655c3.024-8.389 5.517-15.365 5.517-15.448 0-.706.899 1.702 5.885 15.489ZM452.653 113.575c-5.845 1.619-10.095 5.606-10.953 10.298l-.286 1.537h2.493c2.247 0 2.493-.083 2.493-.831 0-1.329 1.021-3.073 2.656-4.526 2.452-2.16 4.046-2.699 8.583-2.699 3.637-.042 4.332.083 6.13 1.038 1.226.623 2.534 1.744 3.27 2.823 1.144 1.662 1.226 2.077 1.349 6.105l.163 4.319h-5.926c-9.318 0-14.509 1.37-18.228 4.817-2.534 2.284-3.433 4.318-3.637 8.263-.246 4.319.776 6.894 3.678 9.551 5.681 5.191 16.225 4.485 22.56-1.494l1.757-1.62.246 2.45c.122 1.37.327 2.658.49 2.907.204.374 5.109.706 5.109.332 0-.041-.205-.747-.491-1.536-.286-.955-.531-6.769-.695-16.819-.245-14.908-.286-15.447-1.185-17.441-1.798-3.945-5.272-6.644-9.808-7.64-2.902-.623-7.153-.54-9.768.166Zm15.816 26.909c0 4.983-.041 5.191-1.185 6.769-1.594 2.242-3.515 3.82-6.171 5.107-1.88.872-2.861 1.08-5.926 1.08-4.373 0-6.458-.872-8.379-3.571-3.065-4.361-1.471-9.967 3.597-12.5 2.943-1.453 5.885-1.91 12.261-1.951l5.803-.042v5.108ZM566.393 113.367c-6.335 1.619-11.852 7.765-13.528 15.033-.777 3.322-.777 11.461-.041 14.326 1.431 5.44 4.986 10.423 9.155 12.707 7.356 4.07 16.797 2.782 22.356-2.99l2.002-2.118-1.389-1.204-1.431-1.204-1.43 1.329c-3.556 3.363-7.03 4.651-11.689 4.277-6.58-.498-11.689-5.398-13.201-12.666-.245-1.204-.449-2.865-.449-3.612v-1.454H586.991v-3.446c-.041-8.804-3.883-15.781-10.136-18.189-2.656-.997-7.969-1.412-10.462-.789Zm8.991 4.9c3.638 1.869 6.376 6.229 6.907 10.963l.286 2.409h-25.543l.286-1.952c.654-4.9 4.414-10.091 8.541-11.752 2.78-1.08 7.071-.955 9.523.332ZM390.408 135.376v21.594h4.496v-19.933h3.392l3.351.042 8.542 9.924 8.501 9.967h6.09l-.736-.955c-.409-.54-4.578-5.399-9.318-10.839-4.7-5.44-8.624-10.132-8.706-10.381-.081-.291 3.679-5.067 8.297-10.548 4.618-5.523 8.378-10.133 8.378-10.257 0-.125-1.267-.208-2.779-.208h-2.82l-7.806 9.551-7.847 9.551h-6.539v-19.102h-4.496v21.594ZM504.271 121.755c-.572 16.362-2.085 22.964-6.703 29.069-1.308 1.744-1.635 1.993-3.024 1.993h-1.553v17.026h4.495V156.97H529.365V169.843h4.904v-17.026h-4.496v-39.035h-25.216l-.286 7.973Zm20.598 13.621v17.441h-23.255l1.226-1.827c3.719-5.648 5.436-13.039 5.926-25.913l.286-7.142h15.817v17.441ZM607.834 135.376v21.594H612.739V121.049l8.296 17.94 8.256 17.981h3.351l7.888-17.151c4.332-9.385 8.011-17.275 8.215-17.524.204-.207.368 7.143.368 17.151v17.524h4.495v-43.229l-2.901.124-2.943.125-8.256 17.981c-4.577 9.883-8.378 18.064-8.46 18.147-.081.124-3.923-8.015-8.541-18.064l-8.338-18.272h-6.335v21.594ZM678.13 135.376v21.594h4.904v-43.188h-4.904v21.594ZM705.513 121.423c0 9.51.613 12.043 3.597 15.157 2.983 3.115 5.517 3.945 12.138 3.945 3.923 0 5.967-.166 7.765-.706 1.349-.415 2.779-.83 3.188-.955.654-.207.695.415.695 8.928v9.178h4.495v-43.188h-4.495v20.722l-2.125.623c-7.766 2.242-14.713 1.785-17.86-1.121-.532-.499-1.349-1.744-1.84-2.783-.735-1.661-.858-2.823-.98-9.675l-.164-7.766h-4.414v7.641ZM761.504 135.376v21.594H766v-19.518h22.887v19.518h4.904v-43.188h-4.904V133.3H766v-19.518h-4.496v21.594ZM818.313 135.376v21.594h2.37l2.33-.042 11.239-17.399 11.239-17.441.123 17.441.082 17.441h4.904v-43.188h-4.782l-11.402 17.649-11.403 17.649-.123-17.649-.081-17.649h-4.496v21.594ZM874.713 135.376v21.594h2.37l2.33-.042 11.239-17.399 11.239-17.441.123 17.441.082 17.441H907v-43.188h-4.782l-11.402 17.649-11.403 17.649-.123-17.649-.081-17.649h-4.496v21.594ZM747.404 196.088c.491 3.031 1.431 4.858 3.556 6.768 3.678 3.364 9.686 4.402 15.244 2.658 3.679-1.163 6.785-4.111 7.725-7.392 1.144-3.903 1.226-3.779-3.393-3.779h-4.046l-.245 1.371c-.613 3.239-4.822 5.025-8.133 3.405-1.389-.664-2.738-2.658-2.738-4.111 0-.581-.613-.665-4.128-.665h-4.128l.286 1.745ZM327.469 226.319v29.068h11.852v-23.711l3.351.124 3.392.125 7.275 11.71 7.316 11.752h6.948c5.394 0 6.907-.124 6.743-.54-.122-.373-14.1-22.341-18.391-28.944-.695-1.079-.654-1.079 8.092-14.741l8.746-13.704-6.825-.125c-3.719-.041-6.989-.041-7.234.083-.245.083-3.515 5.316-7.316 11.628l-6.907 11.461h-5.19V197.25h-11.852v29.069ZM401.647 211.992c-5.558 1.246-9.277 3.821-11.198 7.724-.695 1.412-1.267 3.115-1.267 3.779v1.163h11.28l.368-1.329c.613-1.993 2.248-2.949 5.231-3.156 4.414-.249 6.826 1.993 6.826 6.395v2.118l-5.804.249c-7.97.291-11.852 1.578-15.367 4.983-2.33 2.284-3.351 5.149-3.351 9.344 0 2.657.204 3.654 1.062 5.356 1.267 2.617 3.638 4.859 6.662 6.312 2.003.956 2.82 1.08 6.376 1.08 4.414 0 6.743-.747 9.277-2.907.654-.581 1.349-1.038 1.512-1.038.164 0 .491.706.695 1.537l.368 1.578 5.844.124c3.188.042 5.804-.041 5.804-.207 0-.208-.327-1.163-.695-2.201-.572-1.578-.736-4.111-.94-16.196l-.204-14.326-1.104-2.367c-3.147-6.852-11.934-10.174-21.375-8.015Zm11.24 27.366v3.904l-1.594 1.453c-2.657 2.45-7.112 3.073-9.687 1.329-1.389-.914-2.329-3.239-1.961-4.942.858-4.153 3.269-5.523 9.89-5.606l3.352-.041v3.903ZM529.896 211.951c-7.193 1.785-12.506 7.682-14.223 15.863-.695 3.405-.776 8.596-.163 12.042.981 5.523 4.536 10.714 9.4 13.579 4.168 2.492 11.361 3.406 16.634 2.16 4.209-.997 8.582-3.571 10.34-6.063l.817-1.204-2.738-3.115-2.739-3.073-2.043 1.827c-2.534 2.367-5.477 3.323-9.114 2.99-4.863-.373-8.133-3.28-9.318-8.305l-.245-1.121h26.974v-4.693c0-7.765-1.799-12.914-5.804-16.735-4.291-4.069-11.321-5.73-17.778-4.152Zm7.928 9.011c2.534.955 4.578 4.152 4.619 7.101v1.578h-15.858l.532-2.118c.776-3.031 2.411-5.274 4.414-6.229 1.92-.872 4.536-.997 6.293-.332ZM588.748 211.951c-2.002.664-4.168 1.951-5.231 3.156-1.103 1.245-1.43 1.038-1.43-1.039V212.2H571.46v59.798h11.035v-9.967c0-5.481.082-9.966.205-9.966.122 0 1.021.623 2.002 1.412 2.575 1.993 4.414 2.533 8.624 2.533 3.188 0 4.005-.166 6.212-1.204 6.539-3.073 9.931-10.257 9.931-20.971 0-9.676-2.248-15.738-7.234-19.6-3.228-2.492-9.441-3.53-13.487-2.284Zm4.128 9.135c4.046 1.703 6.008 7.766 5.15 15.905-.532 4.9-1.962 7.765-4.455 9.136-3.351 1.785-7.806.872-10.013-2.035l-1.063-1.453V224.741l1.104-1.371c2.125-2.574 6.253-3.571 9.277-2.284ZM445.173 233.793v21.594h11.035v-12.748c0-6.977.123-12.583.286-12.417.164.166 2.412 5.855 5.027 12.624l4.7 12.334 3.883.124 3.882.083 4.905-12.831 4.904-12.874.123 12.832.081 12.873h11.444V212.2H481.261l-5.476 14.534c-2.984 7.973-5.559 14.534-5.681 14.534-.123 0-2.616-6.519-5.558-14.451l-5.395-14.41-6.989-.124-6.989-.083v21.593ZM628.269 233.793v21.594h11.035v-17.026h14.304v17.026h11.444V212.2h-11.444v17.026h-14.304V212.2h-11.035v21.593ZM685.078 233.793v21.594h11.28l7.03-13.164 7.029-13.205v26.369h11.444V212.2H710.54l-6.907 12.956-6.907 12.998-.123-12.998-.081-12.956h-11.444v21.593ZM742.295 233.793v21.594h11.28l7.03-13.164 7.03-13.205v26.369H779.078V212.2h-11.321l-6.907 12.956-6.907 12.998-.122-12.998-.082-12.956h-11.444v21.593ZM323.668 295.751c.899 1.163 16.184 27.947 16.184 28.362 0 .333-13.895 24.501-16.307 28.321l-.572.955h13.773l5.313-9.8c2.902-5.398 5.477-9.8 5.681-9.8.204-.042 2.779 4.36 5.681 9.759l5.313 9.841h6.866c3.801 0 6.785-.124 6.703-.332-.613-1.079-15.98-27.449-16.43-28.113-.449-.748.368-2.367 7.765-15.157l8.297-14.327-6.376-.124c-3.515-.042-6.58-.042-6.825.083-.245.083-2.82 4.609-5.722 10.007l-5.231 9.842-1.757-3.239c-.981-1.827-3.393-6.312-5.354-10.008l-3.597-6.768h-6.907c-5.435 0-6.784.124-6.498.498ZM401.933 309.828c-7.274 1.454-12.874 7.226-14.835 15.323-.777 3.156-.695 10.797.163 13.995 2.33 8.97 8.624 14.285 17.738 14.949 7.724.582 14.222-2.367 18.064-8.18 2.207-3.405 3.31-7.143 3.597-12.251.817-14.741-7.439-24.5-20.476-24.251-1.39.042-3.311.208-4.251.415Zm9.278 10.216c.817.664 2.002 2.284 2.656 3.613 1.063 2.117 1.226 2.989 1.39 6.851.368 8.762-2.371 13.953-7.602 14.493-3.596.332-6.662-1.329-8.256-4.485-2.493-4.941-1.92-14.991 1.022-18.977 2.452-3.239 7.684-3.987 10.79-1.495ZM462.461 309.953c-2.002.664-4.169 1.952-5.231 3.156-1.104 1.246-1.431 1.038-1.431-1.038v-1.869h-10.626V370h11.035v-9.966c0-5.482.082-9.967.204-9.967.123 0 1.022.623 2.003 1.412 2.575 1.994 4.414 2.533 8.624 2.533 3.187 0 4.005-.166 6.212-1.204 6.539-3.073 9.931-10.257 9.931-20.971 0-9.675-2.248-15.738-7.234-19.6-3.229-2.492-9.441-3.53-13.487-2.284Zm4.128 9.136c4.046 1.702 6.008 7.765 5.15 15.904-.532 4.9-1.962 7.766-4.455 9.136-3.352 1.786-7.806.872-10.013-2.035l-1.063-1.453V322.743l1.104-1.37c2.125-2.575 6.253-3.572 9.277-2.284Z" fill="#fff"/></svg>