<svg width="271" height="306" fill="none" xmlns="http://www.w3.org/2000/svg"><path d="M33.96 55.46c0 26.07-.02 49.77 0 73.47.02 23.78.31 47.56-.06 71.32-.11 6.86 1.8 11.08 8.02 14.33 9.8 5.1 19.04 11.25 28.66 16.7 28.52 16.16 54.25 34.87 65.05 69.5.4-.91.9-1.8 1.18-2.74 8.26-26.86 26.37-45.22 50.34-58.71 13.43-7.56 26.38-16 39.96-23.25 6.78-3.62 9.21-7.86 9.16-15.64-.28-43.52.08-87.05.22-130.58.02-3.56 0-7.13 0-12.81 10.36 6.1 19.53 10.3 27.08 16.5 3.75 3.07 6.3 9.76 6.36 14.84.47 45.2.39 90.4-.01 135.6-.03 3.38-2.94 8.13-5.9 9.86a8492.83 8492.83 0 0 1-123.04 70.34c-3.17 1.77-9.15 1.59-12.38-.23A8186.25 8186.25 0 0 1 6.74 233.59c-3.19-1.88-6.28-7-6.32-10.66-.44-44.86-.2-89.73-.42-134.6-.04-9.43 3.66-15.95 11.85-20.36 6.74-3.62 13.32-7.52 22.1-12.51Z" fill="#fff"/><path d="M202.66 44.46c-.03-3.73-2.9-8.97-6.05-10.9a1318.5 1318.5 0 0 0-56.63-32.53c-2.76-1.5-7.82-1.3-10.65.24A1368.59 1368.59 0 0 0 74.5 32.9c-2.98 1.82-5.89 6.57-5.91 10-.37 46.86-.3 93.74-.06 140.6.02 3.2 1.46 7.53 3.8 9.41 22.15 17.94 41.94 37.82 55.69 64.83v-56.93a26.37 26.37 0 0 1-18.78-25.2V68.7a5.9 5.9 0 1 1 11.79 0v106.9c0 8 6.52 14.53 14.53 14.53 8.02 0 14.54-6.52 14.54-14.54V69.67a5.9 5.9 0 0 1 11.8 0V175.6A26.35 26.35 0 0 1 142.41 201v57.75c12.68-26.43 32.81-46.53 55.13-64.93 2.83-2.33 5.12-7.1 5.15-10.74.34-46.2.37-92.41-.04-138.6Z" fill="#fff"/></svg>