<svg width="135" height="259" viewBox="0 0 135 259" fill="none" xmlns="http://www.w3.org/2000/svg">
<path d="M134.658 44.4606C134.626 40.7286 131.762 35.4913 128.613 33.5673C110.038 22.2179 91.0966 11.4459 71.9793 1.02859C69.222 -0.474072 64.1566 -0.276739 61.334 1.26993C42.826 11.4139 24.5059 21.918 6.49128 32.9046C3.50861 34.722 0.604617 39.4726 0.576617 42.8913C0.20595 89.7619 0.271282 136.637 0.524615 183.507C0.540615 186.709 1.98061 191.026 4.31128 192.911C26.4739 210.853 46.2579 230.729 60.0046 257.743V200.814C49.1566 197.559 41.226 187.494 41.226 175.601V68.7099C41.226 65.4513 43.8659 62.8126 47.1219 62.8126C50.3793 62.8126 53.0193 65.4513 53.0193 68.7099V175.601C53.0193 183.615 59.5393 190.137 67.554 190.137C75.57 190.137 82.09 183.615 82.09 175.601V69.6659C82.09 66.4099 84.73 63.7686 87.9873 63.7686C91.2433 63.7686 93.8833 66.4099 93.8833 69.6659V175.601C93.8833 187.741 85.6126 197.959 74.418 200.99V258.742C87.102 232.306 107.234 212.205 129.553 193.809C132.378 191.479 134.673 186.718 134.699 183.067C135.043 136.866 135.067 90.6593 134.658 44.4606Z" fill="white"/>
</svg>
